<svg width="155" height="25" viewBox="0 0 155 25" fill="none" xmlns="http://www.w3.org/2000/svg">
<path d="M19.4167 8.0254C18.952 8.0254 18.5453 7.86146 18.1968 7.53359C17.8627 7.19145 17.6957 6.7923 17.6957 6.33612C17.6957 5.87995 17.8627 5.4808 18.1968 5.13866C18.5453 4.79653 18.952 4.62547 19.4167 4.62547C19.896 4.62547 20.3026 4.79653 20.6367 5.13866C20.9852 5.4808 21.1595 5.87995 21.1595 6.33612C21.1595 6.7923 20.9852 7.19145 20.6367 7.53359C20.3026 7.86146 19.896 8.0254 19.4167 8.0254ZM18.0225 20V9.30839H20.8327V20H18.0225Z" fill="#06ADEF"/>
<path d="M35.0597 9.00903C36.3087 9.00903 37.3036 9.40818 38.0442 10.2065C38.7994 11.0048 39.177 12.074 39.177 13.414V20H36.3668V13.6064C36.3668 12.9649 36.2071 12.466 35.8875 12.1096C35.568 11.7532 35.1178 11.575 34.5369 11.575C33.8979 11.575 33.3968 11.7817 33.0337 12.1951C32.6852 12.6085 32.5109 13.2073 32.5109 13.9913V20H29.7007V13.6064C29.7007 12.9649 29.5409 12.466 29.2214 12.1096C28.9019 11.7532 28.4517 11.575 27.8707 11.575C27.2462 11.575 26.7452 11.7817 26.3676 12.1951C26.0045 12.6085 25.823 13.2073 25.823 13.9913V20H23.0127V9.30839H25.823V10.4417C26.4765 9.48659 27.4859 9.00903 28.8511 9.00903C30.1872 9.00903 31.1748 9.52223 31.8138 10.5486C32.5399 9.52223 33.6219 9.00903 35.0597 9.00903Z" fill="#06ADEF"/>
<path d="M47.5111 9.00903C48.9779 9.00903 50.2269 9.55787 51.2581 10.6555C52.3037 11.739 52.8266 13.0718 52.8266 14.6542C52.8266 16.2366 52.3037 17.5766 51.2581 18.6742C50.2269 19.7577 48.9779 20.2994 47.5111 20.2994C45.9862 20.2994 44.8098 19.779 43.982 18.7384V24.2767H41.1717V9.30839H43.982V10.57C44.8098 9.52936 45.9862 9.00903 47.5111 9.00903ZM44.8316 16.8353C45.398 17.3913 46.1169 17.6692 46.9883 17.6692C47.8596 17.6692 48.5785 17.3913 49.1449 16.8353C49.7259 16.2651 50.0163 15.538 50.0163 14.6542C50.0163 13.7704 49.7259 13.0505 49.1449 12.4945C48.5785 11.9243 47.8596 11.6392 46.9883 11.6392C46.1169 11.6392 45.398 11.9243 44.8316 12.4945C44.2652 13.0505 43.982 13.7704 43.982 14.6542C43.982 15.538 44.2652 16.2651 44.8316 16.8353Z" fill="#06ADEF"/>
<path d="M54.4164 20V4.39025H57.2266V20H54.4164Z" fill="#06ADEF"/>
<path d="M66.5085 9.30839H69.5148L65.5499 20C64.9835 21.5396 64.2283 22.6515 63.2843 23.3358C62.3548 24.0343 61.193 24.3479 59.7987 24.2767V21.7107C60.5539 21.7249 61.1494 21.5681 61.5851 21.2402C62.0353 20.9124 62.3911 20.3849 62.6525 19.6579L58.1867 9.30839H61.2583L64.0903 16.4932L66.5085 9.30839Z" fill="#06ADEF"/>
<path d="M79.8057 12.2379C81.1418 12.9934 81.8099 14.1339 81.8099 15.6592C81.8099 16.928 81.3524 17.9686 80.4374 18.7812C79.5225 19.5937 78.3969 20 77.0608 20H70.5907V5.03175H76.6033C77.9104 5.03175 79.0069 5.4309 79.8928 6.22921C80.7933 7.01326 81.2435 8.01827 81.2435 9.24424C81.2435 10.4845 80.7642 11.4824 79.8057 12.2379ZM76.6033 7.79018H73.597V11.0832H76.6033C77.0681 11.0832 77.4529 10.9264 77.7579 10.6128C78.0774 10.2992 78.2372 9.90712 78.2372 9.43669C78.2372 8.96626 78.0847 8.57424 77.7797 8.26062C77.4747 7.947 77.0826 7.79018 76.6033 7.79018ZM77.0608 17.2416C77.5691 17.2416 77.9903 17.0776 78.3243 16.7498C78.6584 16.4076 78.8254 15.98 78.8254 15.4668C78.8254 14.9678 78.6584 14.5544 78.3243 14.2265C77.9903 13.8844 77.5691 13.7133 77.0608 13.7133H73.597V17.2416H77.0608Z" fill="#06ADEF"/>
<path d="M92.7084 18.6742C91.5901 19.7577 90.2249 20.2994 88.6129 20.2994C87.0008 20.2994 85.6356 19.7577 84.5173 18.6742C83.4136 17.5766 82.8617 16.2366 82.8617 14.6542C82.8617 13.0718 83.4136 11.739 84.5173 10.6555C85.6356 9.55787 87.0008 9.00903 88.6129 9.00903C90.2249 9.00903 91.5901 9.55787 92.7084 10.6555C93.8267 11.739 94.3858 13.0718 94.3858 14.6542C94.3858 16.2366 93.8267 17.5766 92.7084 18.6742ZM86.4997 16.7711C87.0661 17.3271 87.7705 17.6051 88.6129 17.6051C89.4552 17.6051 90.1596 17.3271 90.726 16.7711C91.2924 16.2152 91.5756 15.5095 91.5756 14.6542C91.5756 13.7989 91.2924 13.0932 90.726 12.5373C90.1596 11.9813 89.4552 11.7033 88.6129 11.7033C87.7705 11.7033 87.0661 11.9813 86.4997 12.5373C85.9479 13.0932 85.6719 13.7989 85.6719 14.6542C85.6719 15.5095 85.9479 16.2152 86.4997 16.7711Z" fill="#06ADEF"/>
<path d="M105.251 18.6742C104.133 19.7577 102.768 20.2994 101.155 20.2994C99.5434 20.2994 98.1782 19.7577 97.0599 18.6742C95.9562 17.5766 95.4043 16.2366 95.4043 14.6542C95.4043 13.0718 95.9562 11.739 97.0599 10.6555C98.1782 9.55787 99.5434 9.00903 101.155 9.00903C102.768 9.00903 104.133 9.55787 105.251 10.6555C106.369 11.739 106.928 13.0718 106.928 14.6542C106.928 16.2366 106.369 17.5766 105.251 18.6742ZM99.0423 16.7711C99.6087 17.3271 100.313 17.6051 101.155 17.6051C101.998 17.6051 102.702 17.3271 103.269 16.7711C103.835 16.2152 104.118 15.5095 104.118 14.6542C104.118 13.7989 103.835 13.0932 103.269 12.5373C102.702 11.9813 101.998 11.7033 101.155 11.7033C100.313 11.7033 99.6087 11.9813 99.0423 12.5373C98.4904 13.0932 98.2145 13.7989 98.2145 14.6542C98.2145 15.5095 98.4904 16.2152 99.0423 16.7711Z" fill="#06ADEF"/>
<path d="M118.556 20H115.288L111.324 15.146V20H108.513V5.03175H111.324V14.0127L115.071 9.30839H118.425L114.047 14.5901L118.556 20Z" fill="#06ADEF"/>
<path fill-rule="evenodd" clip-rule="evenodd" d="M16.1695 15.3885C16.3082 17.1299 15.4297 18.7339 14.1815 19.7421C12.7945 20.8419 10.899 21.346 9.14212 21.346L15.4297 12.6388C15.7996 13.5554 16.1695 14.5178 16.1695 15.3885Z" fill="#06ADEF"/>
<path d="M6.50686 8.0561C7.38528 8.5602 8.49486 9.0643 9.51198 9.29344L10.899 9.79754L12.6558 10.4391L16.7705 6.72711L5.9983 21.8501L0.727783 17.2674L3.50174 14.5178L5.9983 16.7633L9.74314 13.1429C9.09588 13.0055 8.49486 12.7763 7.75514 12.5014C6.46085 12.1592 5.08604 11.5777 3.85613 10.9056C3.68104 10.81 3.51462 10.699 3.36685 10.5662C2.25697 9.56824 1.61196 8.18243 1.69867 6.63545C1.69867 4.89402 2.34592 3.38171 3.68667 2.28186C4.98118 1.22783 6.64556 0.723729 8.35616 0.723729C10.9914 0.586247 13.6267 1.96107 15.0137 4.20661L12.1472 7.0479C11.5 5.5356 10.0205 4.57323 8.2637 4.57323C6.73802 4.57323 5.76714 5.30646 5.76714 6.5438C5.76714 7.18538 5.9983 7.68948 6.50686 8.0561Z" fill="#06ADEF"/>
<path d="M122.841 19.7434C122.478 20.0998 122.042 20.278 121.534 20.278C121.026 20.278 120.59 20.0998 120.227 19.7434C119.864 19.387 119.682 18.9594 119.682 18.4604C119.682 17.9615 119.864 17.5338 120.227 17.1774C120.59 16.821 121.026 16.6428 121.534 16.6428C122.042 16.6428 122.478 16.821 122.841 17.1774C123.204 17.5338 123.386 17.9615 123.386 18.4604C123.386 18.9594 123.204 19.387 122.841 19.7434Z" fill="#253246"/>
<path d="M137.384 9.00903C138.633 9.00903 139.628 9.40819 140.369 10.2065C141.124 11.0048 141.502 12.074 141.502 13.414V20H138.691V13.6064C138.691 12.9649 138.532 12.466 138.212 12.1096C137.893 11.7532 137.442 11.575 136.861 11.575C136.222 11.575 135.721 11.7817 135.358 12.1951C135.01 12.6085 134.835 13.2073 134.835 13.9913V20H132.025V13.6064C132.025 12.9649 131.865 12.466 131.546 12.1096C131.226 11.7532 130.776 11.575 130.195 11.575C129.571 11.575 129.07 11.7817 128.692 12.1951C128.329 12.6085 128.147 13.2073 128.147 13.9913V20H125.337V9.3084H128.147V10.4417C128.801 9.48659 129.81 9.00903 131.176 9.00903C132.512 9.00903 133.499 9.52223 134.138 10.5486C134.864 9.52223 135.946 9.00903 137.384 9.00903Z" fill="#253246"/>
<path d="M145.871 15.7875C146.248 17.1275 147.272 17.7975 148.942 17.7975C150.017 17.7975 150.83 17.4412 151.382 16.7284L153.648 18.0114C152.573 19.5367 150.99 20.2994 148.899 20.2994C147.098 20.2994 145.653 19.7648 144.564 18.6956C143.474 17.6265 142.93 16.2793 142.93 14.6542C142.93 13.0433 143.467 11.7033 144.542 10.6342C145.617 9.55074 146.996 9.00903 148.681 9.00903C150.279 9.00903 151.593 9.55074 152.624 10.6342C153.67 11.7176 154.193 13.0576 154.193 14.6542C154.193 15.0106 154.156 15.3884 154.084 15.7875H145.871ZM145.827 13.6492H151.382C151.223 12.9222 150.889 12.3805 150.38 12.0241C149.886 11.6677 149.32 11.4895 148.681 11.4895C147.926 11.4895 147.301 11.6819 146.808 12.0668C146.314 12.4375 145.987 12.9649 145.827 13.6492Z" fill="#253246"/>
</svg>
